<svg xmlns="http://www.w3.org/2000/svg" xmlns:xlink="http://www.w3.org/1999/xlink" xml:space="preserve" version="1.1"
     style="shape-rendering:geometricPrecision;text-rendering:geometricPrecision;image-rendering:optimizeQuality;"
     viewBox="0 0 60000 60000" x="0px" y="0px" fill-rule="evenodd" clip-rule="evenodd"><defs></defs>
    <g><path fill="#fff" d="M29963.45 16644.84c-2058.71,-20.24 -4142.12,260.85 -6008.09,843.26 -1728.08,539.37 -3263.57,1335.93 -4409.25,2388.88 -564.39,518.72 -184.59,1670.01 73.87,2453.49l74.94 234.08c235.24,735.68 159.64,497.2 183.07,571.17 414.83,1309.27 875.75,2763.97 1386.37,3855.15l5.86 -2.74c35.04,74.76 69.35,150.87 103.02,228.11 149.2,298.99 302.53,564.93 460.12,785.36 294.97,412.62 670.69,415.76 1184.97,420.04 112.93,0.94 231.04,1.93 344.77,5.56 1303.14,41.7 3439.39,22.6 4965.96,8.95 743.74,-6.64 1343.72,-12 1637.52,-8.5 293.8,-3.5 893.78,1.86 1637.52,8.5 1526.57,13.65 3662.82,32.75 4965.96,-8.95 113.73,-3.63 231.84,-4.62 344.77,-5.56 514.28,-4.28 889.99,-7.41 1184.97,-420.04 742.93,-1039.22 1391.7,-3086.83 1955.37,-4865.88 23.43,-73.97 -52.17,164.5 183.07,-571.17l74.94 -234.08c258.46,-783.48 638.26,-1934.77 73.87,-2453.49 -1145.68,-1052.95 -2681.17,-1849.51 -4409.25,-2388.88 -1865.97,-582.41 -3949.38,-863.5 -6008.09,-843.26l-6.26 0zm-10874.46 -7550.97c-0.21,27.01 -3.12,53.36 -8.44,78.82l0 10048.69c587.33,-527.54 1262.44,-993.02 2003.88,-1396.6l0 -12223.89c-155.4,89.87 -306.21,187.37 -452.79,293.94 -303.71,220.82 -742.43,787.84 -1080.07,1484.06 -263.34,543.03 -456.62,1151.66 -462.58,1714.98zm136.78 -2761.06c318.34,-494.48 664.46,-886.62 937.11,-1084.86 588.87,-428.16 1231.1,-724.97 1947.09,-964.4 683.9,-228.7 1428.63,-402.48 2259.69,-590.32 74.97,-42.06 145.42,-108.73 201.16,-183.55 55.3,-74.21 89.79,-142.89 89.79,-184.97l0 -1068.95c-2018.19,108.35 -3410.54,542.94 -4285.87,1460.42 -590.95,619.4 -962.61,1475.49 -1148.97,2616.63zm6234.84 -4084.48l0 1076.38c0,212.49 -95.69,454 -249.17,659.97 -133.14,178.7 -316.82,341.31 -522.77,440.55 -30.04,15.66 -62.55,27.75 -97.16,35.53 -828.7,187.13 -1568.41,358.34 -2228.42,579.05 -163.98,54.84 -323.44,112.92 -478.66,175.28l0 12209.57c581.74,-266.99 1195.76,-500.03 1833.43,-699.06 1941.07,-605.84 4107.85,-898.39 6248.72,-877.66 2140.87,-20.73 4307.65,271.82 6248.72,877.66 669.07,208.83 1312.11,455.08 1919.13,738.72l0 -12249.23c-155.22,-62.37 -314.67,-120.44 -478.65,-175.28 -660.02,-220.71 -1399.73,-391.92 -2228.43,-579.05 -34.61,-7.78 -67.12,-19.87 -97.16,-35.53 -205.95,-99.24 -389.63,-261.85 -522.77,-440.55 -153.48,-205.97 -249.17,-447.48 -249.17,-659.97l0 -1076.38 -9097.64 0zm-246.87 40203.31c0,138.07 -111.93,250 -250,250 -138.07,0 -250,-111.93 -250,-250l0 -7520.19c0,-138.07 111.93,-250 250,-250 138.07,0 250,111.93 250,250l0 7520.19zm3360.21 0c0,138.07 -111.93,250 -250,250 -138.07,0 -250,-111.93 -250,-250l0 -7520.19c0,-138.07 111.93,-250 250,-250 138.07,0 250,111.93 250,250l0 7520.19zm3227.92 0c0,138.07 -111.93,250 -250,250 -138.07,0 -250,-111.93 -250,-250l0 -7520.19c0,-138.07 111.93,-250 250,-250 138.07,0 250,111.93 250,250l0 7520.19zm3360.21 0c0,138.07 -111.93,250 -250,250 -138.07,0 -250,-111.93 -250,-250l0 -7520.19c0,-138.07 111.93,-250 250,-250 138.07,0 250,111.93 250,250l0 7520.19zm-8545.88 -10026.52l0 -3178.82c-1179.99,6.48 -2412.53,5.47 -3278.1,-22.22 -120.35,-3.84 -225.5,-4.73 -326.03,-5.56 -377.44,-3.14 -703.66,-5.9 -1002.43,-102.79 255.92,1004.14 436.25,2117.9 546.79,3294.27 1102.01,26.27 2648.1,23.6 4059.77,15.12zm800 -3184.22l0 3178.81c232.98,-1.71 458.51,-3.47 673.49,-5.14 853.88,-6.65 1542.35,-12.02 1876.89,-8.48 334.54,-3.54 1023.01,1.83 1876.89,8.48 185.43,1.44 378.71,2.95 577.84,4.44l0 -3178.88c-287.3,-2.31 -564.14,-4.78 -823.47,-7.1 -742.65,-6.63 -1341.04,-11.98 -1626.57,-8.45l-9.38 0c-285.53,-3.53 -883.92,1.82 -1626.57,8.45 -288.01,2.57 -597.57,5.35 -919.12,7.87zm5805.11 4.86l0 3178.78c1452.4,9.02 3062.41,12.41 4191.3,-15.4 107.41,-1178.11 284.25,-2294.39 536.35,-3301.9 -305.68,105.23 -639.69,108.05 -1027.87,111.28 -100.53,0.83 -205.68,1.72 -326.03,5.56 -888.99,28.44 -2165.08,28.73 -3373.75,21.68zm4129.62 3962.24c-1514.08,34.59 -3831.8,16.54 -5510.58,3.45 -853.5,-6.64 -1541.2,-12 -1870.64,-8.45l-6.26 0c-329.44,-3.55 -1017.14,1.81 -1870.64,8.45 -1664.86,12.98 -3957.96,30.83 -5472.6,-2.61 89.68,1354.91 92.29,2776.08 15.88,4196.4 -129.38,2405.04 -485.15,4815.36 -1027.59,6903.35 446.34,-418.73 909.14,-665.27 1367.93,-665.76 156.5,-0.17 309.49,26.7 458,82.97 576.63,218.48 1178.5,406.67 1799.34,564.45 629.65,160.02 1271.28,286.73 1918.69,380.09 886.03,127.78 1784.27,195.35 2679.21,202.68 899.95,7.36 1800.85,-45.25 2687.06,-157.84 707.42,-89.88 1406.95,-218.46 2090.6,-385.73 667.79,-163.39 1320.9,-364.61 1951.81,-603.65 148.53,-56.27 301.52,-83.14 458.01,-82.97 456.33,0.49 916.64,244.37 1360.76,659.03 -548.43,-2100.11 -908.5,-4529.94 -1039.43,-6954.29 -75.64,-1400.55 -74.74,-2801.83 10.45,-4139.57zm-4813.45 13880.67c136.45,-17.25 261.07,79.37 278.32,215.82 17.25,136.45 -79.37,261.07 -215.82,278.32 -914.72,116.22 -1844.55,170.52 -2773.36,162.91 -930.86,-7.62 -1858.09,-76.88 -2765.57,-207.75 -136.45,-19.41 -231.32,-145.78 -211.91,-282.23 19.41,-136.45 145.78,-231.32 282.23,-211.91 891.02,128.5 1795.95,196.46 2699.15,203.85 906.57,7.42 1814.14,-45.58 2706.96,-159.01zm-11733.56 -280.31c-205.25,515.28 -425.26,990.16 -658.94,1416.47 -62.79,153.11 -123.67,307.49 -182.41,462.52 -482.95,1274.64 -816.58,2576.84 -882.02,3539.02l0 150.63 -1.52 0c18.12,2148.43 701.91,3426.49 1648.17,4194.36 947.85,769.15 2182.05,1050.03 3280.75,1180.32l5996.48 0 5996.47 0c1098.7,-130.29 2332.9,-411.17 3280.76,-1180.32 920.49,-746.96 1592.51,-1976.81 1645.12,-4020.89 -0.96,-980.25 -354.14,-2438.84 -893.76,-3863.06 -63.53,-167.67 -129.57,-334.59 -197.81,-499.94 -228.24,-416.33 -443.45,-879.37 -644.67,-1381.21 -222.58,-420.85 -456.63,-809.89 -696.08,-1148.36 -520.42,-735.62 -1041.04,-1217.72 -1475.31,-1218.19 -58.74,-0.06 -117.75,10.62 -176.75,32.97 -656.82,248.86 -1341.39,459.47 -2045.57,631.77 -709.27,173.54 -1438.12,307.34 -2178.1,401.35 -921.35,117.06 -1857.87,171.75 -2793.32,164.1 -939.09,-7.7 -1873,-77.35 -2785.45,-208.94 -682.48,-98.41 -1352.4,-230.35 -2003.07,-395.71 -641.22,-162.96 -1271.17,-360.48 -1883.72,-592.57 -59,-22.35 -118,-33.03 -176.74,-32.97 -434.27,0.47 -954.88,482.56 -1475.3,1218.17 -239.86,339.04 -474.29,728.82 -697.21,1150.48zm-727.78 -327.57c957.48,-2412.44 1582.68,-5762.92 1763.07,-9116.17 199.36,-3705.98 -144.52,-7395.73 -1183.64,-9800.54 -585.7,-1175.73 -1089.31,-2765.03 -1540.08,-4187.74l-34.94 -110.44 0 25508.39c43.69,-122.93 88.75,-245.76 135.14,-368.2 252.08,-665.32 543.98,-1322.84 860.45,-1925.3zm-1804.45 -30808.58c0,-28.81 3.08,-56.88 8.86,-83.97l0 -7200.84c0,-2438.25 458.06,-4112.27 1516.07,-5221.22 1059.49,-1110.51 2682.73,-1615.58 5013.35,-1716.29l17.19 -1.56 233.45 0 9897.64 0 223.45 0 17.19 1.56c2330.61,100.71 3953.86,605.78 5013.36,1716.29 1058,1108.95 1516.06,2782.97 1516.06,5221.22l0 7284.81c0,774.17 70.37,1327.7 225.17,1779.44 150.58,439.41 388.26,798 725.54,1187.1l0.77 -0.67 2605.61 2993.07c99.56,114.38 119.97,136.94 139.53,158.56 497.64,550.01 880.13,972.75 324.09,1918.83 -48.05,81.76 -95.3,151.75 -141.69,210.74 -250.34,318.38 -543.73,459.72 -853.73,479.75 -286.27,18.51 -567.52,-74.77 -828.95,-228.41 -104.36,-61.34 -201.11,-128.32 -290.22,-198.39l-1906.12 -1498.85 0 29903.62 -1.56 3.13c-19.77,2431.62 -825.86,3904.29 -1941.97,4809.99 -1107.41,898.63 -2496.63,1215.79 -3719.59,1358.44l-26.75 3.12 -18.56 0 -12049.48 0 -26.74 -3.12c-1222.95,-142.65 -2612.18,-459.82 -3719.58,-1358.44 -1088.46,-883.26 -1881.93,-2305.91 -1938.92,-4631.18l-13.28 0c-0.11,-96.74 2.86,-197.49 8.67,-301.75l0 -29790.78 -1914.98 1505.82c-89.11,70.07 -185.86,137.05 -290.22,198.39 -261.42,153.64 -542.67,246.92 -828.95,228.41 -310,-20.03 -603.39,-161.37 -853.73,-479.75 -46.39,-58.99 -93.64,-128.98 -141.69,-210.74 -556.04,-946.08 -173.54,-1368.83 324.09,-1918.83 19.56,-21.62 39.97,-44.19 139.53,-158.56l2605.61 -2993.07 0.77 0.67c337.28,-389.1 574.96,-747.69 725.54,-1187.1 154.8,-451.74 225.17,-1005.27 225.17,-1779.44zm8.86 3039.56c-107.2,150.2 -226.05,298.48 -357.22,449.75l0 1.56 -2605.61 2993.07 -152.03 167.94c-275.56,304.56 -487.37,538.67 -227.21,981.33 24.26,41.28 51.81,81.32 82.31,120.1 93.64,119.09 186.66,170.89 275.61,176.63 112.67,7.28 242.97,-40.95 375.83,-119.03 62.73,-36.87 130.04,-84.33 199.58,-139.01l2408.74 -1894.08 0 -2738.26zm23447.76 2745.22l2399.88 1887.12c69.54,54.68 136.85,102.14 199.58,139.01 132.86,78.08 263.16,126.31 375.83,119.03 88.94,-5.74 181.97,-57.54 275.61,-176.63 30.5,-38.78 58.05,-78.82 82.31,-120.1 260.16,-442.66 48.35,-676.77 -227.21,-981.33l-152.03 -167.94 -2605.61 -2993.07 0 -1.56c-127.57,-147.12 -243.48,-291.4 -348.36,-437.37l0 2732.84zm-2337.9 5873.5c-1095.07,2398.62 -1458.17,6178.7 -1253.05,9976.46 182.44,3378.04 814.5,6753.52 1780.82,9171.45 316.97,603.14 609.3,1261.54 861.72,1927.75 51.11,134.89 100.6,270.26 148.41,405.69l0 -25788.37c-17.08,55.03 -19.01,63.68 -110.64,352.87 -421.56,1330.53 -889.34,2806.74 -1427.26,3954.15zm1537.9 -8040.4l0 -3617.88 0 -6644.01c-19.51,-544.71 -207.88,-1127.32 -461.02,-1649.31 -337.64,-696.22 -776.36,-1263.24 -1080.07,-1484.06 -146.58,-106.57 -297.39,-204.06 -452.79,-293.94l0 12270.9c739.37,410.08 1411.03,882.6 1993.24,1417.69l0.64 0.61zm-148.71 -12978.18c-187.48,-1130.67 -558.15,-1980.13 -1145.47,-2595.73 -873.9,-915.97 -2263.07,-1350.65 -4275.88,-1459.9l0 1068.43c0,42.08 34.49,110.76 89.79,184.97 55.74,74.82 126.18,141.49 201.16,183.55 831.07,187.85 1575.79,361.62 2259.7,590.32 715.97,239.43 1358.2,536.24 1947.08,964.4 268.8,195.44 609.02,579.33 923.62,1063.96z"/></g>
    </svg>