<svg width="125" height="107" viewBox="0 0 125 107" fill="none" xmlns="http://www.w3.org/2000/svg">
    <circle cx="50" cy="84.8141" r="8.5" stroke="white" stroke-width="5"/>
    <circle cx="103" cy="84.8141" r="8.5" stroke="white" stroke-width="5"/>
    <line x1="83.8697" y1="35.5641" x2="57.299" y2="81.5858" stroke="white" stroke-width="5"/>
    <path d="M71.9734 11.25C71.5592 10.5326 70.6418 10.2867 69.9243 10.701C69.2069 11.1152 68.9611 12.0326 69.3753 12.75L71.9734 11.25ZM69.3753 12.75L108.224 80.0387L110.823 78.5387L71.9734 11.25L69.3753 12.75Z" fill="white"/>
    <line x1="67" y1="66.3141" x2="102" y2="66.3141" stroke="white"/>
    <path d="M64 13.3141C63.1716 13.3141 62.5 13.9856 62.5 14.8141C62.5 15.6425 63.1716 16.3141 64 16.3141V13.3141ZM64 16.3141L72 16.3141V13.3141L64 13.3141V16.3141Z" fill="white"/>
    <path d="M22 28.8141H43" stroke="white" stroke-width="5" stroke-linecap="round"/>
    <path d="M35 40.8141H63" stroke="white" stroke-width="5" stroke-linecap="round"/>
    <path d="M12 51.8141H31" stroke="white" stroke-width="5" stroke-linecap="round"/>
    <path d="M27 64.8141H46" stroke="white" stroke-width="5" stroke-linecap="round"/>
</svg>
